<!DOCTYPE svg PUBLIC "-//W3C//DTD SVG 1.1//EN" "http://www.w3.org/Graphics/SVG/1.1/DTD/svg11.dtd">
<svg class="root" xmlns="http://www.w3.org/2000/svg" width="250" height="100">
<!-- style="background-color:#000" -->
    <style>
    svg *{
        backface-visibility: visible;
        overflow:visible;
    }
    .root{
        background-color:#000;
    }
    </style>
    <symbol id="logo_item">
        <path d="M0 0,L12.06794919 21.9615242,L12.06794919 47.3205081,L-0 60,L-12.06794919 47.3205081,L-12.06794919 21.9615242 Z"/>
    </symbol>
    <symbol id="logo">
        <use transform="translate(0,73.2) rotate(-105)" href="#logo_item"></use>
        <use transform="translate(73.2,00) rotate(15)" href="#logo_item"></use>
        <use transform="translate(100,100) rotate(-225)" href="#logo_item"></use>
    </symbol>
    <symbol id="D">
        <svg width="100" height="100">
            <path d="M0 0,L50 0,L100 50,L50 100,L0 100,L0 0,Z" fill="#0000" stroke-width="3.5"></path>
        </svg>
    </symbol>
    <symbol id="E">
        <svg width="100" height="100">
            <path d="M100 99,L100 100,L50 100,L0 50,L50 0,L100 0,M0 50,L100 50" fill="#0000" stroke-width="3.5"></path>
        </svg>
    </symbol>
    <symbol id="F">
        <svg  width="100" height="100">
            <path d="M0 100,L0 50,L50 0,L100 0,M0 50,L100 50" fill="#0000" stroke-width="3.5"></path>
        </svg>
    </symbol>
    <svg x="0" y="0" width="100" height="100" viewBox="0 0 100 100">
        <use href="#logo" fill="#fff"></use>
    </svg>

    <svg x="100" y="25" width="150" height="50" viewBox="0 0 300 100" stroke="#fff">
        <use x="0" href="#D"></use>
        <use x="98.4" href="#E"></use>
        <use x="198.4" href="#F"></use>
    </svg>

    

</svg>